<svg width="517" height="578" viewBox="0 0 517 578" fill="none" xmlns="http://www.w3.org/2000/svg">
<path fill-rule="evenodd" clip-rule="evenodd" d="M504.045 326.972V326.972L503.083 330.528L502.094 334.062L501.078 337.576L500.037 341.068L498.971 344.539L497.88 347.988L496.766 351.417L495.629 354.824L494.469 358.21L493.287 361.576L492.083 364.921L490.858 368.245L489.612 371.549L488.345 374.832L487.057 378.095L485.75 381.338L484.422 384.561L483.074 387.764L481.705 390.947L480.317 394.11L478.908 397.253L477.48 400.376L476.031 403.48L474.562 406.564L473.072 409.628L471.561 412.672L470.03 415.696L468.478 418.7L466.904 421.684L465.309 424.648L463.693 427.592L462.054 430.514L460.394 433.416L458.711 436.297L457.005 439.157L455.277 441.995L453.525 444.812L451.751 447.606L449.953 450.378L448.131 453.128L446.286 455.854L444.417 458.557L442.524 461.237L440.607 463.892L438.667 466.524L436.702 469.13L434.713 471.712L432.7 474.269L430.663 476.799L428.602 479.304L426.517 481.783L424.409 484.234L422.277 486.659L420.123 489.057L417.945 491.428L415.745 493.771L413.523 496.086L411.278 498.373L409.012 500.631L406.725 502.861L404.416 505.063L402.087 507.235L399.736 509.378L397.366 511.492L394.976 513.576L392.566 515.63L390.137 517.653L387.688 519.647L385.222 521.61L382.736 523.542L380.233 525.443L377.712 527.313L375.173 529.151L372.618 530.958L370.045 532.732L367.456 534.475L364.851 536.185L362.231 537.863L359.595 539.508L356.943 541.12L354.277 542.698L351.597 544.243L348.902 545.754L346.194 547.232L343.473 548.675L340.738 550.083L337.991 551.457L335.232 552.796L332.461 554.101L329.678 555.369L326.884 556.603L324.08 557.8L321.265 558.962L318.441 560.089L315.608 561.179L312.766 562.234L309.916 563.252L307.058 564.235L304.192 565.181L301.321 566.092L298.442 566.967L295.558 567.806L292.669 568.61L289.775 569.378L286.877 570.11L283.976 570.807L281.071 571.469L278.163 572.096L275.253 572.689L272.341 573.246L269.428 573.769L266.514 574.258L263.6 574.713L260.686 575.135L257.772 575.523L254.86 575.877L251.948 576.199L249.039 576.488L246.131 576.744L243.226 576.968L240.324 577.16L237.425 577.32L234.53 577.449L231.639 577.546L228.752 577.613L225.869 577.648L222.992 577.653L220.12 577.627L217.253 577.571L214.392 577.486L211.538 577.37L208.689 577.224L205.848 577.049L203.013 576.845L200.186 576.611L197.366 576.348L194.553 576.055L191.749 575.734L188.953 575.383L186.166 575.003L183.388 574.595L180.618 574.157L177.859 573.69L175.108 573.193L172.368 572.667L169.638 572.112L166.919 571.527L164.211 570.913L161.514 570.268L158.829 569.593L156.156 568.888L153.496 568.153L150.848 567.387L148.214 566.591L145.594 565.764L142.988 564.906L140.396 564.017L137.819 563.098L135.258 562.148L132.713 561.167L130.184 560.155L127.672 559.112L125.177 558.039L122.7 556.935L120.242 555.801L117.802 554.636L115.381 553.442L112.98 552.217L110.598 550.963L108.238 549.679L105.898 548.366L103.579 547.025L101.282 545.654L99.0074 544.256L96.7551 542.829L94.5257 541.375L92.3196 539.894L90.137 538.387L87.9784 536.853L85.844 535.293L83.7342 533.708L81.6492 532.098L79.5893 530.464L77.5547 528.806L75.5458 527.124L73.5628 525.42L71.6059 523.693L69.6754 521.945L67.7714 520.175L65.8942 518.384L64.044 516.572L62.221 514.741L60.4254 512.89L58.6572 511.02L56.9168 509.132L55.2042 507.225L53.5196 505.302L51.863 503.361L50.2347 501.404L48.6346 499.431L47.0629 497.442L45.5197 495.439L44.0051 493.421L42.519 491.389L41.0615 489.344L39.6327 487.286L38.2325 485.215L36.861 483.133L35.5182 481.039L34.204 478.934L32.9183 476.819L31.6613 474.694L30.4327 472.559L29.2325 470.415L28.0607 468.264L26.9171 466.104L25.8016 463.936L24.7141 461.762L23.6545 459.581L22.6226 457.393L21.6183 455.201L20.6414 453.003L19.6916 450.8L18.7689 448.593L17.873 446.382L17.0036 444.168L16.1606 441.951L15.3438 439.731L14.5527 437.509L13.7873 435.285L13.0471 433.059L12.3319 430.833L11.6415 428.606L10.9755 426.378L10.3335 424.151L9.71524 421.924L9.12037 419.698L8.54853 417.473L7.99935 415.249L7.47243 413.026L6.9674 410.806L6.48385 408.587L6.02138 406.371L5.57958 404.158L5.15805 401.948L4.75639 399.74L4.3742 397.536L4.01107 395.336L3.66659 393.139L3.34038 390.945L3.03202 388.756L2.74113 386.57L2.46731 384.389L2.21016 382.211L1.96931 380.038L1.74436 377.869L1.53494 375.704L1.34067 373.544L1.16117 371.388L0.99607 369.236L0.84501 367.088L0.707626 364.945L0.58356 362.805L0.472459 360.67L0.373974 358.539L0.287761 356.412L0.213482 354.289L0.1508 352.169L0.0993864 350.053L0.0589165 347.941L0.0290707 345.832L0.00953471 343.726L0 341.623L0.000163531 339.523L0.00972446 337.426L0.0283796 335.331L0.0558236 333.239L0.0917496 331.148L0.13585 329.059L0.187819 326.972L0.24735 324.886L0.31414 322.801L0.38789 320.716L0.468303 318.632L0.555091 316.548L0.64797 314.464L0.746664 312.379L0.850906 310.293L0.96044 308.206L1.07502 306.117L1.19441 304.026L1.3184 301.932L1.44677 299.836L1.57935 297.736L1.71594 295.632L1.85642 293.525L2.00063 291.412L2.14846 289.294L2.29982 287.17L2.45465 285.041L2.61289 282.905L2.77453 280.761L2.93956 278.61L3.10803 276.451L3.27999 274.283L3.45552 272.106L3.63475 269.92L3.81781 267.723L4.0049 265.516L4.19621 263.298L4.39199 261.068L4.59251 258.826L4.79808 256.572L5.00903 254.304L5.22573 252.024L5.44859 249.729L5.67805 247.421L5.91457 245.098L6.15866 242.76L6.41085 240.406L6.67172 238.037L6.94185 235.652L7.22189 233.251L7.51248 230.834L7.81433 228.4L8.12815 225.95L8.45468 223.482L8.7947 220.997L9.149 218.496L9.5184 215.977L9.90376 213.441L10.3059 210.887L10.7258 208.317L11.1643 205.73L11.6222 203.126L12.1007 200.506L12.6005 197.869L13.1227 195.216L13.6681 192.548L14.2379 189.864L14.833 187.165L15.4543 184.451L16.1028 181.724L16.7796 178.983L17.4856 176.23L18.2218 173.464L18.9891 170.687L19.7885 167.898L20.621 165.1L21.4876 162.293L22.389 159.478L23.3263 156.655L24.3003 153.825L25.3119 150.99L26.3619 148.151L27.4512 145.308L28.5805 142.463L29.7506 139.616L30.9622 136.77L32.216 133.924L33.5127 131.081L34.853 128.242L36.2373 125.407L37.6662 122.579L39.1403 119.758L40.66 116.946L42.2257 114.144L43.8378 111.354L45.4967 108.576L47.2026 105.812L48.9557 103.065L50.7562 100.334L52.6041 97.6207L54.4995 94.9272L56.4425 92.2543L58.4328 89.6034L60.4706 86.9757L62.5555 84.3722L64.6875 81.7942L66.8662 79.2428L69.0914 76.7191L71.3628 74.2242L73.68 71.7592L76.0426 69.3249L78.4503 66.9225L80.9024 64.5528L83.3986 62.2169L85.9383 59.9154L88.5209 57.6494L91.146 55.4196L93.8128 53.2268L96.5208 51.0717L99.2694 48.9551L102.058 46.8775L104.885 44.8397L107.751 42.8423L110.655 40.8858L113.596 38.9707L116.574 37.0976L119.586 35.267L122.634 33.4793L125.716 31.735L128.831 30.0343L131.979 28.3777L135.159 26.7656L138.37 25.1982L141.611 23.6759L144.882 22.1989L148.181 20.7675L151.509 19.382L154.864 18.0424L158.246 16.7492L161.653 15.5024L165.085 14.3023L168.542 13.1491L172.023 12.0429L175.526 10.9839L179.052 9.97225L182.599 9.00819L186.166 8.09187L189.754 7.22346L193.361 6.40316L196.987 5.63116L200.63 4.90767L204.291 4.23289L207.968 3.60707L211.661 3.03045L215.369 2.50328L219.091 2.02582L222.827 1.59832L226.576 1.22098L230.336 0.894035L234.109 0.617658L237.891 0.392029L241.684 0.21731L245.486 0.0936461L249.296 0.0211698L253.114 0L256.939 0.0302427L260.77 0.111992L264.606 0.24533L268.447 0.430327L272.293 0.667047L276.141 0.955539L279.992 1.29585L283.844 1.688L287.698 2.13204L291.552 2.62797L295.405 3.17582L299.257 3.77559L303.108 4.42728L306.955 5.13089L310.799 5.88643L314.639 6.69387L318.474 7.55322L322.303 8.46446L326.125 9.42757L329.941 10.4425L333.748 11.5094L337.546 12.628L341.335 13.7984L345.113 15.0206L348.88 16.2947L352.635 17.6207L356.377 18.9986L360.105 20.4285L363.818 21.9106L367.515 23.4451L371.195 25.0319L374.857 26.6713L378.501 28.3635L382.124 30.1086L385.726 31.9067L389.305 33.758L392.861 35.6627L396.392 37.6208L399.897 39.6326L403.374 41.6981L406.823 43.8173L410.241 45.9905L413.628 48.2175L416.983 50.4985L420.303 52.8333L423.587 55.222L426.834 57.6645L430.042 60.1605L433.211 62.71L436.338 65.3127L439.422 67.9684L442.461 70.6767L445.455 73.4373L448.401 76.2498L451.298 79.1137L454.145 82.0285L456.94 84.9936L459.682 88.0084L462.369 91.0721L465.001 94.1842L467.575 97.3436L470.091 100.55L472.546 103.801L474.941 107.098L477.274 110.438L479.544 113.82L481.749 117.245L483.889 120.709L485.963 124.212L487.97 127.753L489.909 131.33L491.779 134.942L493.58 138.588L495.312 142.266L496.973 145.974L498.563 149.712L500.083 153.476L501.531 157.267L502.908 161.081L504.214 164.918L505.448 168.776L506.612 172.653L507.704 176.548L508.726 180.458L509.678 184.383L510.56 188.319L511.373 192.267L512.117 196.223L512.794 200.188L513.404 204.158L513.947 208.132L514.425 212.109L514.838 216.088L515.188 220.066L515.476 224.043L515.701 228.017L515.867 231.987L515.973 235.951L516.021 239.908L516.012 243.858L515.947 247.798L515.828 251.729L515.656 255.648L515.432 259.554L515.158 263.448L514.834 267.327L514.462 271.192L514.044 275.041L513.581 278.874L513.074 282.689L512.525 286.487L511.934 290.267L511.304 294.027L510.635 297.769L509.928 301.491L509.186 305.193L508.409 308.875L507.599 312.536L506.756 316.177L505.882 319.796L504.978 323.395L504.045 326.972" fill="#CBD5E1"/>
<path fill-rule="evenodd" clip-rule="evenodd" d="M427.577 299.489V299.489L426.821 302.518L426.042 305.528L425.243 308.521L424.424 311.495L423.585 314.451L422.727 317.389L421.851 320.309L420.956 323.212L420.043 326.096L419.113 328.962L418.166 331.811L417.202 334.643L416.222 337.457L415.225 340.253L414.212 343.032L413.183 345.794L412.138 348.539L411.077 351.267L410.001 353.978L408.908 356.672L407.8 359.349L406.676 362.01L405.536 364.653L404.38 367.28L403.208 369.889L402.02 372.482L400.815 375.058L399.594 377.617L398.356 380.158L397.101 382.682L395.829 385.189L394.54 387.679L393.233 390.15L391.909 392.604L390.567 395.04L389.207 397.457L387.829 399.856L386.433 402.236L385.018 404.597L383.585 406.939L382.133 409.261L380.663 411.564L379.174 413.846L377.665 416.108L376.138 418.349L374.592 420.569L373.027 422.768L371.444 424.945L369.841 427.101L368.219 429.234L366.579 431.345L364.921 433.433L363.244 435.499L361.548 437.541L359.835 439.56L358.104 441.556L356.356 443.527L354.59 445.475L352.807 447.399L351.007 449.298L349.191 451.173L347.358 453.023L345.509 454.849L343.644 456.649L341.763 458.424L339.867 460.173L337.956 461.897L336.029 463.595L334.088 465.267L332.133 466.912L330.163 468.532L328.18 470.124L326.182 471.69L324.172 473.229L322.148 474.74L320.111 476.224L318.061 477.681L315.999 479.11L313.925 480.511L311.839 481.884L309.742 483.228L307.633 484.544L305.513 485.831L303.382 487.089L301.241 488.319L299.089 489.518L296.928 490.689L294.757 491.829L292.577 492.94L290.387 494.021L288.189 495.071L285.983 496.091L283.768 497.081L281.546 498.04L279.317 498.969L277.081 499.867L274.839 500.735L272.59 501.571L270.336 502.378L268.076 503.154L265.811 503.899L263.542 504.613L261.269 505.298L258.992 505.952L256.712 506.576L254.429 507.169L252.144 507.733L249.856 508.267L247.566 508.772L245.275 509.247L242.983 509.692L240.691 510.109L238.398 510.496L236.105 510.855L233.813 511.186L231.521 511.488L229.23 511.761L226.941 512.007L224.654 512.226L222.368 512.417L220.085 512.58L217.804 512.717L215.526 512.826L213.251 512.909L210.98 512.966L208.712 512.996L206.448 513L204.188 512.978L201.933 512.931L199.682 512.857L197.436 512.759L195.195 512.635L192.959 512.486L190.729 512.312L188.504 512.112L186.285 511.888L184.073 511.639L181.866 511.365L179.667 511.067L177.474 510.743L175.288 510.395L173.109 510.022L170.937 509.624L168.774 509.201L166.618 508.754L164.47 508.281L162.33 507.783L160.2 507.259L158.078 506.71L155.965 506.135L153.862 505.535L151.769 504.909L149.686 504.256L147.613 503.578L145.552 502.874L143.501 502.143L141.462 501.386L139.435 500.603L137.42 499.794L135.417 498.958L133.427 498.096L131.451 497.208L129.488 496.294L127.539 495.354L125.605 494.388L123.685 493.396L121.781 492.379L119.891 491.336L118.018 490.267L116.16 489.174L114.319 488.056L112.495 486.913L110.688 485.746L108.898 484.555L107.126 483.34L105.372 482.102L103.636 480.84L101.919 479.556L100.221 478.25L98.5412 476.921L96.8812 475.571L95.2407 474.2L93.62 472.808L92.0193 471.396L90.4387 469.964L88.8785 468.512L87.3388 467.041L85.8199 465.552L84.3218 464.044L82.8449 462.519L81.3892 460.976L79.9549 459.416L78.5421 457.84L77.1509 456.247L75.7816 454.639L74.4341 453.015L73.1087 451.377L71.8053 449.724L70.5241 448.057L69.2652 446.377L68.0286 444.683L66.8145 442.977L65.6227 441.258L64.4535 439.527L63.3068 437.785L62.1826 436.032L61.081 434.269L60.0019 432.495L58.9453 430.712L57.9113 428.919L56.8998 427.117L55.9108 425.307L54.9441 423.489L53.9999 421.663L53.0779 419.831L52.1781 417.991L51.3005 416.145L50.4448 414.293L49.6111 412.435L48.7993 410.572L48.0091 408.705L47.2404 406.833L46.4932 404.957L45.7672 403.077L45.0623 401.194L44.3783 399.308L43.715 397.419L43.0723 395.529L42.4499 393.636L41.8477 391.742L41.2653 389.846L40.7026 387.95L40.1594 386.053L39.6354 384.156L39.1303 382.259L38.6438 380.362L38.1758 378.466L37.7259 376.571L37.2938 374.677L36.8792 372.784L36.4819 370.892L36.1014 369.003L35.7376 367.116L35.39 365.231L35.0583 363.348L34.7423 361.468L34.4416 359.591L34.1559 357.716L33.8848 355.845L33.6282 353.977L33.3856 352.112L33.1567 350.251L32.9413 348.392L32.7389 346.538L32.5494 344.687L32.3724 342.84L32.2077 340.996L32.0548 339.156L31.9136 337.319L31.7837 335.486L31.6648 333.657L31.5568 331.832L31.4591 330.01L31.3717 328.191L31.2942 326.376L31.2264 324.564L31.168 322.756L31.1186 320.951L31.0782 319.148L31.0464 317.349L31.0229 315.553L31.0075 313.759L31 311.968L31.0001 310.18L31.0077 308.393L31.0223 306.609L31.0439 304.827L31.0722 303.046L31.1069 301.267L31.1478 299.489L31.1946 297.712L31.2472 295.937L31.3052 294.161L31.3685 292.386L31.4367 290.611L31.5098 288.836L31.5875 287.06L31.6695 285.284L31.7557 283.506L31.8458 281.727L31.9398 279.946L32.0373 278.163L32.1383 276.377L32.2426 274.589L32.3501 272.797L32.4606 271.001L32.5741 269.202L32.6904 267.398L32.8095 265.59L32.9313 263.776L33.0558 261.956L33.183 260.131L33.3128 258.299L33.4454 256.46L33.5807 254.613L33.7188 252.759L33.8598 250.897L34.0038 249.026L34.151 247.146L34.3015 245.257L34.4556 243.357L34.6133 241.448L34.7751 239.528L34.9411 237.597L35.1116 235.654L35.2869 233.7L35.4674 231.734L35.6535 229.755L35.8456 227.764L36.044 225.759L36.2492 223.742L36.4618 221.71L36.6821 219.666L36.9107 217.607L37.1482 215.534L37.3951 213.446L37.6521 211.345L37.9196 209.228L38.1983 207.098L38.489 204.952L38.7922 202.792L39.1086 200.618L39.4389 198.429L39.7839 196.225L40.1443 194.007L40.5207 191.775L40.9139 189.529L41.3248 187.27L41.754 184.997L42.2023 182.711L42.6704 180.412L43.1593 178.101L43.6695 175.778L44.202 173.444L44.7575 171.099L45.3367 168.743L45.9404 166.378L46.5694 164.003L47.2244 161.62L47.9062 159.229L48.6154 156.831L49.3529 154.426L50.1192 152.016L50.9151 149.602L51.7413 147.183L52.5983 144.762L53.4869 142.339L54.4075 139.914L55.3608 137.49L56.3473 135.066L57.3675 132.645L58.422 130.227L59.5111 127.812L60.6354 125.403L61.7952 123.001L62.9908 120.606L64.2227 118.219L65.4912 115.842L66.7964 113.477L68.1385 111.123L69.5178 108.782L70.9344 106.456L72.3884 104.146L73.8797 101.852L75.4084 99.5751L76.9744 97.3173L78.5776 95.0791L80.2181 92.8617L81.8955 90.666L83.6097 88.4929L85.3604 86.3434L87.1475 84.2185L88.9707 82.1189L90.8296 80.0456L92.7239 77.9994L94.6532 75.9811L96.6172 73.9915L98.6154 72.0313L100.647 70.1013L102.713 68.2021L104.811 66.3345L106.942 64.4989L109.104 62.6961L111.298 60.9266L113.523 59.191L115.778 57.4897L118.062 55.8233L120.376 54.1922L122.719 52.5969L125.089 51.0377L127.487 49.5151L129.912 48.0294L132.363 46.5809L134.84 45.17L137.342 43.7969L139.868 42.4619L142.418 41.1653L144.992 39.9073L147.588 38.6882L150.206 37.508L152.846 36.3671L155.506 35.2657L158.187 34.2038L160.888 33.1816L163.607 32.1994L166.346 31.2572L169.102 30.3552L171.876 29.4936L174.667 28.6725L177.474 27.892L180.296 27.1524L183.134 26.4537L185.987 25.7962L188.854 25.18L191.734 24.6053L194.627 24.0722L197.533 23.5811L200.45 23.1321L203.379 22.7254L206.318 22.3613L209.267 22.0399L212.226 21.7615L215.194 21.5261L218.171 21.3339L221.155 21.1851L224.146 21.0798L227.144 21.018L230.148 21L233.157 21.0258L236.171 21.0954L239.19 21.209L242.212 21.3665L245.237 21.5681L248.265 21.8139L251.295 22.1037L254.326 22.4377L257.358 22.8159L260.39 23.2383L263.422 23.7049L266.453 24.2158L269.482 24.7708L272.509 25.3701L275.534 26.0136L278.555 26.7013L281.572 27.4333L284.585 28.2094L287.592 29.0297L290.594 29.8942L293.589 30.8028L296.578 31.7555L299.559 32.7524L302.532 33.7934L305.495 34.8786L308.45 36.0079L311.394 37.1815L314.327 38.3994L317.248 39.6618L320.157 40.9687L323.053 42.3202L325.934 43.7166L328.801 45.1578L331.651 46.6441L334.485 48.1756L337.301 49.7525L340.099 51.3747L342.877 53.0425L345.635 54.756L348.371 56.5152L351.084 58.3202L353.774 60.1711L356.439 62.0679L359.078 64.0107L361.69 65.9993L364.274 68.0338L366.829 70.1141L369.353 72.2401L371.846 74.4115L374.306 76.6283L376.733 78.8902L379.124 81.1969L381.479 83.5482L383.797 85.9437L386.077 88.3829L388.317 90.8655L390.516 93.391L392.673 95.9587L394.787 98.5682L396.858 101.219L398.883 103.91L400.862 106.64L402.795 109.41L404.679 112.218L406.515 115.062L408.3 117.943L410.035 120.86L411.719 123.81L413.351 126.794L414.93 129.81L416.455 132.857L417.927 135.934L419.344 139.039L420.706 142.171L422.013 145.33L423.265 148.513L424.46 151.719L425.6 154.948L426.683 158.197L427.71 161.465L428.682 164.751L429.597 168.053L430.456 171.37L431.26 174.7L432.009 178.043L432.703 181.396L433.343 184.758L433.929 188.128L434.461 191.504L434.941 194.886L435.368 198.271L435.744 201.658L436.07 205.047L436.345 208.435L436.571 211.822L436.749 215.207L436.879 218.588L436.962 221.965L437 225.335L436.993 228.699L436.942 232.055L436.849 235.403L436.713 238.741L436.537 242.068L436.321 245.384L436.066 248.689L435.774 251.98L435.445 255.259L435.08 258.523L434.682 261.773L434.249 265.007L433.785 268.227L433.288 271.43L432.762 274.617L432.207 277.787L431.623 280.94L431.011 284.076L430.374 287.194L429.711 290.295L429.023 293.378L428.312 296.442L427.577 299.489" fill="#91C9C0"/>
</svg>
