<svg width="500" height="606" viewBox="0 0 500 606" fill="none" xmlns="http://www.w3.org/2000/svg">
<path fill-rule="evenodd" clip-rule="evenodd" d="M425.44 311.354V311.354L424.414 313.577L423.429 315.774L422.487 317.949L421.586 320.104L420.727 322.24L419.911 324.361L419.136 326.469L418.402 328.566L417.707 330.654L417.052 332.736L416.435 334.813L415.853 336.888L415.305 338.961L414.789 341.036L414.303 343.113L413.844 345.194L413.408 347.279L412.993 349.371L412.597 351.47L412.215 353.576L411.844 355.69L411.482 357.812L411.124 359.943L410.767 362.083L410.409 364.23L410.047 366.386L409.677 368.55L409.297 370.721L408.904 372.899L408.497 375.083L408.073 377.274L407.632 379.47L407.172 381.672L406.693 383.879L406.193 386.091L405.673 388.308L405.13 390.53L404.566 392.756L403.98 394.988L403.372 397.224L402.742 399.464L402.09 401.711L401.417 403.962L400.723 406.22L400.008 408.484L399.273 410.756L398.519 413.036L397.746 415.325L396.955 417.624L396.146 419.934L395.321 422.256L394.48 424.592L393.623 426.943L392.751 429.31L391.865 431.695L390.964 434.099L390.05 436.524L389.122 438.971L388.18 441.441L387.225 443.937L386.256 446.459L385.272 449.009L384.273 451.588L383.259 454.197L382.228 456.838L381.179 459.51L380.112 462.215L379.025 464.954L377.917 467.727L376.785 470.533L375.628 473.374L374.445 476.248L373.233 479.155L371.989 482.095L370.713 485.067L369.402 488.069L368.053 491.099L366.664 494.157L365.232 497.239L363.756 500.345L362.233 503.471L360.66 506.615L359.035 509.773L357.357 512.942L355.622 516.12L353.828 519.302L351.974 522.484L350.059 525.662L348.079 528.833L346.034 531.992L343.922 535.134L341.742 538.256L339.493 541.353L337.175 544.42L334.788 547.455L332.33 550.453L329.803 553.41L327.206 556.324L324.539 559.19L321.804 562.006L319.001 564.767L316.13 567.47L313.193 570.113L310.191 572.691L307.125 575.202L303.996 577.641L300.805 580.006L297.555 582.293L294.246 584.497L290.881 586.615L287.462 588.642L283.99 590.574L280.467 592.405L276.898 594.132L273.283 595.748L269.626 597.251L265.93 598.636L262.198 599.899L258.435 601.036L254.642 602.043L250.826 602.918L246.988 603.657L243.134 604.258L239.268 604.718L235.394 605.035L231.516 605.207L227.639 605.233L223.767 605.11L219.906 604.84L216.06 604.42L212.233 603.851L208.429 603.133L204.655 602.266L200.913 601.251L197.209 600.09L193.547 598.784L189.932 597.335L186.366 595.746L182.855 594.018L179.402 592.154L176.012 590.159L172.686 588.035L169.429 585.786L166.244 583.416L163.134 580.93L160.101 578.332L157.147 575.626L154.276 572.818L151.488 569.914L148.785 566.917L146.169 563.833L143.641 560.669L141.201 557.429L138.85 554.119L136.588 550.744L134.416 547.312L132.333 543.826L130.339 540.293L128.433 536.718L126.614 533.107L124.88 529.465L123.231 525.798L121.666 522.11L120.181 518.407L118.776 514.693L117.448 510.974L116.195 507.254L115.014 503.536L113.904 499.826L112.861 496.128L111.883 492.444L110.966 488.78L110.108 485.139L109.303 481.525L108.548 477.944L107.838 474.397L107.168 470.891L106.534 467.428L105.929 464.013L105.348 460.649L104.785 457.339L104.234 454.087L103.688 450.895L103.142 447.766L102.587 444.703L102.018 441.708L101.427 438.783L100.806 435.929L100.149 433.147L99.4479 430.439L98.6946 427.806L97.8814 425.248L97.0005 422.765L96.0445 420.356L95.0066 418.02L93.8806 415.754L92.661 413.557L91.3429 411.425L89.9222 409.353L88.3957 407.337L86.761 405.373L85.0166 403.454L83.1617 401.575L81.1968 399.729L79.1231 397.911L76.9427 396.113L74.6588 394.328L72.2754 392.549L69.7976 390.77L67.2313 388.983L64.5831 387.18L61.8607 385.356L59.0726 383.504L56.2278 381.617L53.3362 379.689L50.4083 377.714L47.4551 375.688L44.4882 373.605L41.5195 371.461L38.5614 369.253L35.6265 366.977L32.7275 364.632L29.8773 362.214L27.0889 359.722L24.3751 357.157L21.7484 354.519L19.2215 351.807L16.8063 349.024L14.5145 346.171L12.3574 343.252L10.3455 340.269L8.48874 337.226L6.79642 334.128L5.27697 330.98L3.93798 327.786L2.78615 324.554L1.82723 321.288L1.06597 317.995L0.506076 314.681L0.150225 311.354L0 308.021L0.0558965 304.688L0.317317 301.362L0.782571 298.05L1.44889 294.759L2.31245 291.496L3.36839 288.266L4.61087 285.075L6.03306 281.93L7.62728 278.834L9.38502 275.794L11.2971 272.812L13.3537 269.893L15.5445 267.04L17.8588 264.255L20.2852 261.54L22.8125 258.897L25.4289 256.325L28.1227 253.826L30.8821 251.398L33.6954 249.041L36.551 246.753L39.4377 244.532L42.3446 242.375L45.2611 240.279L48.1773 238.241L51.0837 236.258L53.9717 234.324L56.8334 232.437L59.6616 230.591L62.4502 228.782L65.194 227.007L67.8882 225.26L70.5289 223.537L73.1121 221.834L75.6346 220.145L78.0935 218.468L80.4862 216.795L82.8107 215.124L85.0653 213.449L87.2489 211.766L89.3605 210.07L91.3999 208.356L93.3671 206.621L95.2626 204.86L97.087 203.07L98.8418 201.245L100.528 199.384L102.149 197.482L103.705 195.536L105.201 193.544L106.637 191.502L108.019 189.409L109.348 187.262L110.63 185.059L111.867 182.799L113.064 180.481L114.225 178.104L115.355 175.667L116.458 173.17L117.538 170.613L118.601 167.996L119.65 165.321L120.692 162.587L121.73 159.797L122.77 156.952L123.817 154.053L124.874 151.104L125.947 148.105L127.04 145.059L128.158 141.971L129.304 138.841L130.484 135.674L131.701 132.473L132.958 129.241L134.261 125.983L135.611 122.701L137.013 119.4L138.469 116.084L139.982 112.757L141.556 109.423L143.191 106.087L144.892 102.752L146.658 99.4234L148.493 96.1048L150.398 92.8009L152.374 89.5159L154.421 86.2541L156.542 83.0198L158.737 79.8173L161.005 76.6505L163.347 73.5226L165.763 70.4364L168.252 67.3941L170.812 64.3974L173.443 61.4478L176.143 58.5461L178.912 55.693L181.748 52.8892L184.649 50.1351L187.614 47.4309L190.643 44.777L193.733 42.1739L196.884 39.622L200.094 37.1223L203.363 34.6757L206.689 32.2836L210.072 29.948L213.51 27.6708L217.003 25.4551L220.549 23.3039L224.148 21.2213L227.798 19.2113L231.498 17.2783L235.246 15.4264L239.041 13.6599L242.88 11.9831L246.762 10.4L250.683 8.91484L254.642 7.53154L258.636 6.25397L262.662 5.08584L266.717 4.03066L270.798 3.09177L274.901 2.27224L279.023 1.5749L283.16 1.00233L287.309 0.55677L291.465 0.240177L295.626 0.0541642L299.787 0L303.944 0.0785969L308.093 0.290501L312.231 0.635885L316.353 1.11455L320.456 1.72591L324.536 2.46901L328.59 3.34254L332.613 4.34481L336.603 5.47378L340.556 6.72708L344.47 8.10203L348.341 9.59564L352.167 11.2046L355.945 12.9255L359.674 14.7544L363.351 16.6876L366.974 18.7207L370.542 20.8495L374.054 23.0696L377.508 25.3766L380.904 27.7659L384.241 30.233L387.519 32.7732L390.737 35.3821L393.895 38.0552L396.994 40.7882L400.034 43.5769L403.015 46.4171L405.937 49.305L408.801 52.2368L411.609 55.209L414.359 58.2184L417.055 61.2618L419.695 64.3365L422.28 67.4398L424.812 70.5696L427.291 73.7237L429.718 76.9004L432.092 80.098L434.414 83.3155L436.684 86.5524L438.9 89.8087L441.062 93.085L443.168 96.3822L445.216 99.7013L447.203 103.044L449.126 106.411L450.983 109.805L452.77 113.227L454.484 116.678L456.121 120.159L457.676 123.672L459.148 127.217L460.532 130.794L461.824 134.405L463.022 138.047L464.123 141.72L465.125 145.423L466.025 149.155L466.824 152.911L467.519 156.691L468.112 160.489L468.602 164.304L468.99 168.132L469.277 171.969L469.464 175.812L469.552 179.658L469.543 183.502L469.437 187.343L469.238 191.175L468.947 194.997L468.566 198.804L468.099 202.593L467.548 206.361L466.917 210.105L466.208 213.822L465.424 217.508L464.57 221.162L463.649 224.781L462.666 228.362L461.623 231.902L460.525 235.4L459.377 238.854L458.183 242.262L456.947 245.622L455.673 248.933L454.366 252.194L453.03 255.403L451.67 258.561L450.29 261.666L448.894 264.719L447.487 267.718L446.074 270.664L444.657 273.558L443.242 276.4L441.832 279.189L440.43 281.929L439.041 284.618L437.668 287.259L436.315 289.852L434.983 292.4L433.677 294.903L432.399 297.365L431.151 299.785L429.936 302.168L428.756 304.514L427.612 306.825L426.506 309.105L425.44 311.354" fill="#ECD4EA"/>
<path fill-rule="evenodd" clip-rule="evenodd" d="M455.44 311.354V311.354L454.414 313.577L453.429 315.774L452.487 317.949L451.586 320.104L450.727 322.24L449.911 324.361L449.136 326.469L448.402 328.566L447.707 330.654L447.052 332.736L446.435 334.813L445.853 336.888L445.305 338.961L444.789 341.036L444.303 343.113L443.844 345.194L443.408 347.279L442.993 349.371L442.597 351.47L442.215 353.576L441.844 355.69L441.482 357.812L441.124 359.943L440.767 362.083L440.409 364.23L440.047 366.386L439.677 368.55L439.297 370.721L438.904 372.899L438.497 375.083L438.073 377.274L437.632 379.47L437.172 381.672L436.693 383.879L436.193 386.091L435.673 388.308L435.13 390.53L434.566 392.756L433.98 394.988L433.372 397.224L432.742 399.464L432.09 401.711L431.417 403.962L430.723 406.22L430.008 408.484L429.273 410.756L428.519 413.036L427.746 415.325L426.955 417.624L426.146 419.934L425.321 422.256L424.48 424.592L423.623 426.943L422.751 429.31L421.865 431.695L420.964 434.099L420.05 436.524L419.122 438.971L418.18 441.441L417.225 443.937L416.256 446.459L415.272 449.009L414.273 451.588L413.259 454.197L412.228 456.838L411.179 459.51L410.112 462.215L409.025 464.954L407.917 467.727L406.785 470.533L405.628 473.374L404.445 476.248L403.233 479.155L401.989 482.095L400.713 485.067L399.402 488.069L398.053 491.099L396.664 494.157L395.232 497.239L393.756 500.345L392.233 503.471L390.66 506.615L389.035 509.773L387.357 512.942L385.622 516.12L383.828 519.302L381.974 522.484L380.059 525.662L378.079 528.833L376.034 531.992L373.922 535.134L371.742 538.256L369.493 541.353L367.175 544.42L364.788 547.455L362.33 550.453L359.803 553.41L357.206 556.324L354.539 559.19L351.804 562.006L349.001 564.767L346.13 567.47L343.193 570.113L340.191 572.691L337.125 575.202L333.996 577.641L330.805 580.006L327.555 582.293L324.246 584.497L320.881 586.615L317.462 588.642L313.99 590.574L310.467 592.405L306.898 594.132L303.283 595.748L299.626 597.251L295.93 598.636L292.198 599.899L288.435 601.036L284.642 602.043L280.826 602.918L276.988 603.657L273.134 604.258L269.268 604.718L265.394 605.035L261.516 605.207L257.639 605.233L253.767 605.11L249.906 604.84L246.06 604.42L242.233 603.851L238.429 603.133L234.655 602.266L230.913 601.251L227.209 600.09L223.547 598.784L219.932 597.335L216.366 595.746L212.855 594.018L209.402 592.154L206.012 590.159L202.686 588.035L199.429 585.786L196.244 583.416L193.134 580.93L190.101 578.332L187.147 575.626L184.276 572.818L181.488 569.914L178.785 566.917L176.169 563.833L173.641 560.669L171.201 557.429L168.85 554.119L166.588 550.744L164.416 547.312L162.333 543.826L160.339 540.293L158.433 536.718L156.614 533.107L154.88 529.465L153.231 525.798L151.666 522.11L150.181 518.407L148.776 514.693L147.448 510.974L146.195 507.254L145.014 503.536L143.904 499.826L142.861 496.128L141.883 492.444L140.966 488.78L140.108 485.139L139.303 481.525L138.548 477.944L137.838 474.397L137.168 470.891L136.534 467.428L135.929 464.013L135.348 460.649L134.785 457.339L134.234 454.087L133.688 450.895L133.142 447.766L132.587 444.703L132.018 441.708L131.427 438.783L130.806 435.929L130.149 433.147L129.448 430.439L128.695 427.806L127.881 425.248L127.001 422.765L126.045 420.356L125.007 418.02L123.881 415.754L122.661 413.557L121.343 411.425L119.922 409.353L118.396 407.337L116.761 405.373L115.017 403.454L113.162 401.575L111.197 399.729L109.123 397.911L106.943 396.113L104.659 394.328L102.275 392.549L99.7976 390.77L97.2313 388.983L94.5831 387.18L91.8607 385.356L89.0726 383.504L86.2278 381.617L83.3362 379.689L80.4083 377.714L77.4551 375.688L74.4882 373.605L71.5195 371.461L68.5614 369.253L65.6265 366.977L62.7275 364.632L59.8773 362.214L57.0889 359.722L54.3751 357.157L51.7484 354.519L49.2215 351.807L46.8063 349.024L44.5145 346.171L42.3574 343.252L40.3455 340.269L38.4887 337.226L36.7964 334.128L35.277 330.98L33.938 327.786L32.7862 324.554L31.8272 321.288L31.066 317.995L30.5061 314.681L30.1502 311.354L30 308.021L30.0559 304.688L30.3173 301.362L30.7826 298.05L31.4489 294.759L32.3125 291.496L33.3684 288.266L34.6109 285.075L36.0331 281.93L37.6273 278.834L39.385 275.794L41.2971 272.812L43.3537 269.893L45.5445 267.04L47.8588 264.255L50.2852 261.54L52.8125 258.897L55.4289 256.325L58.1227 253.826L60.8821 251.398L63.6954 249.041L66.551 246.753L69.4377 244.532L72.3446 242.375L75.2611 240.279L78.1773 238.241L81.0837 236.258L83.9717 234.324L86.8334 232.437L89.6616 230.591L92.4502 228.782L95.194 227.007L97.8882 225.26L100.529 223.537L103.112 221.834L105.635 220.145L108.093 218.468L110.486 216.795L112.811 215.124L115.065 213.449L117.249 211.766L119.361 210.07L121.4 208.356L123.367 206.621L125.263 204.86L127.087 203.07L128.842 201.245L130.528 199.384L132.149 197.482L133.705 195.536L135.201 193.544L136.637 191.502L138.019 189.409L139.348 187.262L140.63 185.059L141.867 182.799L143.064 180.481L144.225 178.104L145.355 175.667L146.458 173.17L147.538 170.613L148.601 167.996L149.65 165.321L150.692 162.587L151.73 159.797L152.77 156.952L153.817 154.053L154.874 151.104L155.947 148.105L157.04 145.059L158.158 141.971L159.304 138.841L160.484 135.674L161.701 132.473L162.958 129.241L164.261 125.983L165.611 122.701L167.013 119.4L168.469 116.084L169.982 112.757L171.556 109.423L173.191 106.087L174.892 102.752L176.658 99.4234L178.493 96.1048L180.398 92.8009L182.374 89.5159L184.421 86.2541L186.542 83.0198L188.737 79.8173L191.005 76.6505L193.347 73.5226L195.763 70.4364L198.252 67.3941L200.812 64.3974L203.443 61.4478L206.143 58.5461L208.912 55.693L211.748 52.8892L214.649 50.1351L217.614 47.4309L220.643 44.777L223.733 42.1739L226.884 39.622L230.094 37.1223L233.363 34.6757L236.689 32.2836L240.072 29.948L243.51 27.6708L247.003 25.4551L250.549 23.3039L254.148 21.2213L257.798 19.2113L261.498 17.2783L265.246 15.4264L269.041 13.6599L272.88 11.9831L276.762 10.4L280.683 8.91484L284.642 7.53154L288.636 6.25397L292.662 5.08584L296.717 4.03066L300.798 3.09177L304.901 2.27224L309.023 1.5749L313.16 1.00233L317.309 0.55677L321.465 0.240177L325.626 0.0541642L329.787 0L333.944 0.0785969L338.093 0.290501L342.231 0.635885L346.353 1.11455L350.456 1.72591L354.536 2.46901L358.59 3.34254L362.613 4.34481L366.603 5.47378L370.556 6.72708L374.47 8.10203L378.341 9.59564L382.167 11.2046L385.945 12.9255L389.674 14.7544L393.351 16.6876L396.974 18.7207L400.542 20.8495L404.054 23.0696L407.508 25.3766L410.904 27.7659L414.241 30.233L417.519 32.7732L420.737 35.3821L423.895 38.0552L426.994 40.7882L430.034 43.5769L433.015 46.4171L435.937 49.305L438.801 52.2368L441.609 55.209L444.359 58.2184L447.055 61.2618L449.695 64.3365L452.28 67.4398L454.812 70.5696L457.291 73.7237L459.718 76.9004L462.092 80.098L464.414 83.3155L466.684 86.5524L468.9 89.8087L471.062 93.085L473.168 96.3822L475.216 99.7013L477.203 103.044L479.126 106.411L480.983 109.805L482.77 113.227L484.484 116.678L486.121 120.159L487.676 123.672L489.148 127.217L490.532 130.794L491.824 134.405L493.022 138.047L494.123 141.72L495.125 145.423L496.025 149.155L496.824 152.911L497.519 156.691L498.112 160.489L498.602 164.304L498.99 168.132L499.277 171.969L499.464 175.812L499.552 179.658L499.543 183.502L499.437 187.343L499.238 191.175L498.947 194.997L498.566 198.804L498.099 202.593L497.548 206.361L496.917 210.105L496.208 213.822L495.424 217.508L494.57 221.162L493.649 224.781L492.666 228.362L491.623 231.902L490.525 235.4L489.377 238.854L488.183 242.262L486.947 245.622L485.673 248.933L484.366 252.194L483.03 255.403L481.67 258.561L480.29 261.666L478.894 264.719L477.487 267.718L476.074 270.664L474.657 273.558L473.242 276.4L471.832 279.189L470.43 281.929L469.041 284.618L467.668 287.259L466.315 289.852L464.983 292.4L463.677 294.903L462.399 297.365L461.151 299.785L459.936 302.168L458.756 304.514L457.612 306.825L456.506 309.105L455.44 311.354" fill="#B3A1CD"/>
</svg>
