<svg width="381" height="275" viewBox="0 0 381 275" fill="none" xmlns="http://www.w3.org/2000/svg">
<path fill-rule="evenodd" clip-rule="evenodd" d="M380.653 143.319L380.375 144.57L380.018 145.816L379.58 147.056L379.062 148.289L378.467 149.513L377.794 150.727L377.046 151.929L376.225 153.119L375.331 154.296L374.368 155.457L373.338 156.603L372.243 157.732L371.086 158.843L369.871 159.936L368.599 161.01L367.275 162.064L365.9 163.097L364.477 164.11L363.01 165.1L361.501 166.069L359.952 167.016L358.367 167.94L356.748 168.841L355.098 169.719L353.418 170.574L351.713 171.406L349.984 172.214L348.233 173L346.464 173.762L344.679 174.501L342.879 175.218L341.068 175.912L339.248 176.584L337.42 177.234L335.587 177.862L333.751 178.469L331.915 179.056L330.079 179.622L328.246 180.169L326.417 180.697L324.595 181.206L322.78 181.697L320.975 182.171L319.181 182.628L317.4 183.069L315.633 183.495L313.882 183.907L312.148 184.305L310.433 184.691L308.738 185.065L307.065 185.428L305.414 185.781L303.786 186.125L302.184 186.462L300.607 186.791L299.058 187.115L297.536 187.434L296.043 187.749L294.579 188.062L293.146 188.373L291.742 188.683L290.37 188.993L289.028 189.305L287.719 189.62L286.441 189.938L285.194 190.261L283.979 190.588L282.796 190.923L281.645 191.264L280.524 191.614L279.434 191.972L278.374 192.34L277.344 192.719L276.342 193.109L275.369 193.511L274.423 193.925L273.504 194.352L272.61 194.793L271.741 195.248L270.895 195.717L270.071 196.201L269.268 196.7L268.485 197.214L267.72 197.744L266.973 198.289L266.241 198.85L265.523 199.427L264.819 200.019L264.126 200.626L263.443 201.249L262.769 201.887L262.102 202.54L261.441 203.208L260.784 203.89L260.131 204.585L259.478 205.295L258.826 206.017L258.173 206.752L257.518 207.499L256.859 208.257L256.194 209.026L255.524 209.806L254.847 210.595L254.161 211.394L253.465 212.201L252.759 213.016L252.042 213.838L251.312 214.667L250.569 215.501L249.812 216.341L249.04 217.186L248.253 218.034L247.449 218.886L246.629 219.741L245.791 220.598L244.935 221.456L244.061 222.315L243.168 223.175L242.257 224.036L241.326 224.896L240.376 225.757L239.407 226.617L238.418 227.478L237.41 228.34L236.383 229.202L235.337 230.065L234.271 230.93L233.186 231.797L232.081 232.666L230.957 233.538L229.813 234.412L228.649 235.291L227.465 236.173L226.261 237.059L225.036 237.95L223.791 238.845L222.524 239.745L221.236 240.65L219.925 241.56L218.592 242.474L217.235 243.392L215.856 244.313L214.452 245.238L213.023 246.166L211.57 247.094L210.091 248.024L208.586 248.955L207.055 249.884L205.498 250.813L203.914 251.739L202.303 252.662L200.664 253.581L198.999 254.494L197.305 255.402L195.585 256.303L193.836 257.196L192.06 258.079L190.257 258.952L188.427 259.814L186.569 260.664L184.685 261.5L182.774 262.321L180.837 263.126L178.875 263.914L176.887 264.684L174.876 265.435L172.84 266.166L170.781 266.874L168.699 267.56L166.596 268.223L164.472 268.86L162.329 269.471L160.166 270.055L157.986 270.612L155.788 271.139L153.576 271.636L151.348 272.102L149.108 272.536L146.855 272.938L144.592 273.306L142.32 273.64L140.039 273.939L137.752 274.202L135.46 274.429L133.164 274.619L130.865 274.771L128.566 274.886L126.268 274.962L123.971 275L121.679 274.999L119.391 274.958L117.111 274.878L114.838 274.759L112.576 274.6L110.324 274.401L108.085 274.162L105.86 273.884L103.651 273.567L101.458 273.21L99.2838 272.814L97.129 272.38L94.9952 271.907L92.8835 271.396L90.7952 270.847L88.7313 270.262L86.6931 269.64L84.6816 268.982L82.6978 268.289L80.7427 267.561L78.8172 266.799L76.9222 266.004L75.0583 265.177L73.2265 264.319L71.4272 263.429L69.6612 262.51L67.929 261.562L66.2309 260.587L64.5675 259.584L62.9391 258.555L61.346 257.501L59.7887 256.423L58.2676 255.321L56.7833 254.196L55.3365 253.049L53.9277 251.881L52.5577 250.691L51.2272 249.481L49.9369 248.25L48.6877 247L47.4804 245.731L46.3158 244.442L45.1949 243.136L44.1183 241.811L43.087 240.47L42.1018 239.111L41.1635 237.736L40.2729 236.345L39.4309 234.939L38.638 233.517L37.8951 232.082L37.2028 230.634L36.5616 229.172L35.9723 227.698L35.4352 226.213L34.9508 224.717L34.5196 223.211L34.1418 221.696L33.8177 220.173L33.5474 218.642L33.3309 217.104L33.1681 215.561L33.059 214.013L33.003 212.462L33 210.907L33.0493 209.351L33.1502 207.794L33.3021 206.238L33.504 204.683L33.7548 203.13L34.0536 201.581L34.3989 200.037L34.7895 198.498L35.2237 196.966L35.7001 195.442L36.2169 193.926L36.7723 192.42L37.3642 190.924L37.9907 189.44L38.6496 187.969L39.3387 186.511L40.0556 185.067L40.7981 183.637L41.5635 182.224L42.3494 180.826L43.1531 179.445L43.9721 178.082L44.8037 176.736L45.6451 175.408L46.4936 174.099L47.3464 172.809L48.2007 171.538L49.0539 170.286L49.9031 169.053L50.7456 167.84L51.5786 166.645L52.3996 165.47L53.2058 164.314L53.9947 163.176L54.7638 162.056L55.5106 160.954L56.2327 159.869L56.928 158.8L57.5942 157.748L58.2293 156.712L58.8314 155.689L59.3985 154.681L59.9291 153.686L60.4215 152.703L60.8744 151.731L61.2864 150.769L61.6565 149.817L61.9838 148.873L62.2673 147.936L62.5065 147.005L62.701 146.079L62.8504 145.157L62.9546 144.237L63.0136 143.319L63.0277 142.402L62.9973 141.484L62.923 140.565L62.8054 139.642L62.6456 138.716L62.4446 137.785L62.2036 136.848L61.9241 135.904L61.6077 134.953L61.256 133.993L60.8709 133.024L60.4544 132.045L60.0087 131.055L59.5361 130.053L59.0391 129.04L58.5207 128.014L57.984 126.976L57.4324 125.924L56.8696 124.86L56.2993 123.783L55.7255 122.692L55.1523 121.59L54.5837 120.475L54.0242 119.348L53.4778 118.21L52.9489 117.061L52.4418 115.904L51.9606 114.737L51.5095 113.563L51.0926 112.383L50.7137 111.198L50.3766 110.009L50.085 108.818L49.8421 107.627L49.6512 106.436L49.5153 105.247L49.4371 104.063L49.4189 102.884L49.4629 101.713L49.5709 100.551L49.7445 99.3996L49.985 98.2605L50.2935 97.1354L50.6708 96.0259L51.1175 94.9336L51.6338 93.86L52.2198 92.8066L52.8753 91.7748L53.5999 90.766L54.3929 89.7815L55.2534 88.8225L56.1802 87.8901L57.1721 86.9853L58.2273 86.1092L59.3442 85.2624L60.5207 84.4457L61.7548 83.6598L63.0441 82.9051L64.3863 82.1819L65.7786 81.4907L67.2183 80.8314L68.7027 80.2042L70.2288 79.6088L71.7936 79.0451L73.394 78.5127L75.0268 78.0111L76.689 77.5398L78.3772 77.0979L80.0883 76.6849L81.8191 76.2996L83.5664 75.941L85.3271 75.6081L87.098 75.2997L88.8762 75.0143L90.6585 74.7507L92.4423 74.5074L94.2246 74.2827L96.0027 74.0753L97.7742 73.8833L99.5365 73.7051L101.287 73.5391L103.024 73.3834L104.746 73.2362L106.45 73.0958L108.134 72.9604L109.798 72.8282L111.439 72.6974L113.057 72.5663L114.651 72.4331L116.219 72.2961L117.76 72.1537L119.275 72.0043L120.763 71.8464L122.224 71.6785L123.657 71.4991L125.063 71.307L126.442 71.1009L127.794 70.8796L129.12 70.6421L130.42 70.3874L131.696 70.1147L132.948 69.8231L134.178 69.512L135.385 69.1809L136.573 68.8293L137.741 68.4568L138.892 68.0633L140.026 67.6486L141.146 67.2128L142.252 66.7559L143.347 66.2781L144.432 65.7799L145.509 65.2615L146.579 64.7235L147.644 64.1666L148.705 63.5914L149.765 62.9987L150.825 62.3891L151.886 61.7635L152.95 61.1223L154.017 60.4662L155.09 59.7959L156.168 59.1117L157.255 58.4144L158.349 57.7043L159.453 56.9819L160.567 56.2478L161.693 55.5023L162.831 54.746L163.982 53.9792L165.146 53.2023L166.326 52.4159L167.52 51.6202L168.731 50.8157L169.959 50.0029L171.205 49.1821L172.469 48.3537L173.751 47.5183L175.053 46.6762L176.376 45.828L177.719 44.9741L179.084 44.115L180.47 43.2512L181.879 42.3833L183.311 41.512L184.767 40.6379L186.246 39.7616L187.75 38.8841L189.279 38.006L190.833 37.1282L192.412 36.2517L194.017 35.3774L195.648 34.5063L197.305 33.6395L198.989 32.7781L200.699 31.9232L202.435 31.076L204.198 30.2378L205.987 29.4099L207.802 28.5934L209.643 27.7899L211.509 27.0005L213.4 26.2268L215.316 25.4702L217.256 24.732L219.219 24.0138L221.205 23.317L223.212 22.643L225.24 21.9934L227.289 21.3696L229.355 20.7729L231.44 20.205L233.541 19.6671L235.657 19.1608L237.787 18.6873L239.929 18.248L242.082 17.8441L244.244 17.4771L246.414 17.1481L248.589 16.8582L250.768 16.6086L252.949 16.4004L255.131 16.2345L257.311 16.1119L259.487 16.0335L261.657 16L263.819 16.0122L265.972 16.0707L268.112 16.1762L270.239 16.3289L272.349 16.5295L274.441 16.7781L276.513 17.0749L278.562 17.4201L280.587 17.8137L282.585 18.2556L284.555 18.7457L286.494 19.2836L288.4 19.869L290.273 20.5016L292.109 21.1806L293.908 21.9056L295.667 22.6757L297.386 23.4902L299.062 24.348L300.694 25.2484L302.282 26.1901L303.823 27.172L305.317 28.1929L306.762 29.2515L308.159 30.3464L309.506 31.4761L310.803 32.6392L312.049 33.8341L313.244 35.0592L314.387 36.3128L315.48 37.5932L316.522 38.8987L317.512 40.2275L318.452 41.5778L319.343 42.9475L320.184 44.3348L320.978 45.7375L321.725 47.1535L322.428 48.5807L323.087 50.0169L323.704 51.46L324.283 52.9077L324.824 54.358L325.331 55.8087L325.807 57.2577L326.253 58.7031L326.672 60.1428L327.068 61.575L327.444 62.9978L327.803 64.4096L328.148 65.8088L328.482 67.1938L328.809 68.5633L329.132 69.916L329.453 71.2508L329.777 72.5668L330.107 73.863L330.445 75.1387L330.795 76.3935L331.159 77.6268L331.541 78.8385L331.943 80.0283L332.367 81.1963L332.817 82.3426L333.293 83.4674L333.798 84.5712L334.335 85.6543L334.904 86.7175L335.508 87.7615L336.147 88.787L336.822 89.795L337.535 90.7865L338.285 91.7627L339.074 92.7246L339.901 93.6736L340.765 94.6108L341.668 95.5378L342.607 96.4558L343.582 97.3663L344.592 98.2707L345.636 99.1705L346.711 100.067L347.817 100.962L348.95 101.857L350.109 102.753L351.291 103.651L352.494 104.554L353.715 105.461L354.95 106.376L356.196 107.297L357.451 108.228L358.71 109.169L359.97 110.121L361.228 111.084L362.479 112.06L363.72 113.049L364.947 114.052L366.156 115.07L367.343 116.102L368.504 117.15L369.635 118.212L370.733 119.291L371.793 120.384L372.813 121.493L373.787 122.616L374.713 123.755L375.587 124.907L376.406 126.073L377.167 127.252L377.866 128.444L378.501 129.646L379.069 130.859L379.569 132.082L379.996 133.313L380.35 134.552L380.629 135.796L380.831 137.045L380.955 138.298L381 139.554L380.965 140.81L380.849 142.066L380.653 143.319Z" fill="#FBF5C6"/>
<path fill-rule="evenodd" clip-rule="evenodd" d="M347.653 127.319L347.375 128.57L347.018 129.816L346.58 131.056L346.062 132.289L345.467 133.513L344.794 134.727L344.046 135.929L343.225 137.119L342.331 138.296L341.368 139.457L340.338 140.603L339.243 141.732L338.086 142.843L336.871 143.936L335.599 145.01L334.275 146.064L332.9 147.097L331.477 148.11L330.01 149.1L328.501 150.069L326.952 151.016L325.367 151.94L323.748 152.841L322.098 153.719L320.418 154.574L318.713 155.406L316.984 156.214L315.233 157L313.464 157.762L311.679 158.501L309.879 159.218L308.068 159.912L306.248 160.584L304.42 161.234L302.587 161.862L300.751 162.469L298.915 163.056L297.079 163.622L295.246 164.169L293.417 164.697L291.595 165.206L289.78 165.697L287.975 166.171L286.181 166.628L284.4 167.069L282.633 167.495L280.882 167.907L279.148 168.305L277.433 168.691L275.738 169.065L274.065 169.428L272.414 169.781L270.786 170.125L269.184 170.462L267.607 170.791L266.058 171.115L264.536 171.434L263.043 171.749L261.579 172.062L260.146 172.373L258.742 172.683L257.37 172.993L256.028 173.305L254.719 173.62L253.441 173.938L252.194 174.261L250.979 174.588L249.796 174.923L248.645 175.264L247.524 175.614L246.434 175.972L245.374 176.34L244.344 176.719L243.342 177.109L242.369 177.511L241.423 177.925L240.504 178.352L239.61 178.793L238.741 179.248L237.895 179.717L237.071 180.201L236.268 180.7L235.485 181.214L234.72 181.744L233.973 182.289L233.241 182.85L232.523 183.427L231.819 184.019L231.126 184.626L230.443 185.249L229.769 185.887L229.102 186.54L228.441 187.208L227.784 187.89L227.131 188.585L226.478 189.295L225.826 190.017L225.173 190.752L224.518 191.499L223.859 192.257L223.194 193.026L222.524 193.806L221.847 194.595L221.161 195.394L220.465 196.201L219.759 197.016L219.042 197.838L218.312 198.667L217.569 199.501L216.812 200.341L216.04 201.186L215.253 202.034L214.449 202.886L213.629 203.741L212.791 204.598L211.935 205.456L211.061 206.315L210.168 207.175L209.257 208.036L208.326 208.896L207.376 209.757L206.407 210.617L205.418 211.478L204.41 212.34L203.383 213.202L202.337 214.065L201.271 214.93L200.186 215.797L199.081 216.666L197.957 217.538L196.813 218.412L195.649 219.291L194.465 220.173L193.261 221.059L192.036 221.95L190.791 222.845L189.524 223.745L188.236 224.65L186.925 225.56L185.592 226.474L184.235 227.392L182.856 228.313L181.452 229.238L180.023 230.166L178.57 231.094L177.091 232.024L175.586 232.955L174.055 233.884L172.498 234.813L170.914 235.739L169.303 236.662L167.664 237.581L165.999 238.494L164.305 239.402L162.585 240.303L160.836 241.196L159.06 242.079L157.257 242.952L155.427 243.814L153.569 244.664L151.685 245.5L149.774 246.321L147.837 247.126L145.875 247.914L143.887 248.684L141.876 249.435L139.84 250.166L137.781 250.874L135.699 251.56L133.596 252.223L131.472 252.86L129.329 253.471L127.166 254.055L124.986 254.612L122.788 255.139L120.576 255.636L118.348 256.102L116.108 256.536L113.855 256.938L111.592 257.306L109.32 257.64L107.039 257.939L104.752 258.202L102.46 258.429L100.164 258.619L97.8652 258.771L95.5661 258.886L93.2676 258.962L90.9714 259L88.6788 258.999L86.3915 258.958L84.1108 258.878L81.8383 258.759L79.5756 258.6L77.3239 258.401L75.0849 258.162L72.86 257.884L70.6506 257.567L68.4581 257.21L66.2838 256.814L64.129 256.38L61.9952 255.907L59.8835 255.396L57.7952 254.847L55.7313 254.262L53.6931 253.64L51.6816 252.982L49.6978 252.289L47.7427 251.561L45.8172 250.799L43.9222 250.004L42.0583 249.177L40.2265 248.319L38.4272 247.429L36.6612 246.51L34.929 245.562L33.2309 244.587L31.5675 243.584L29.9391 242.555L28.346 241.501L26.7887 240.423L25.2676 239.321L23.7833 238.196L22.3365 237.049L20.9277 235.881L19.5577 234.691L18.2272 233.481L16.9369 232.25L15.6877 231L14.4804 229.731L13.3158 228.442L12.1949 227.136L11.1183 225.811L10.087 224.47L9.10177 223.111L8.16349 221.736L7.27292 220.345L6.43085 218.939L5.63801 217.517L4.8951 216.082L4.20277 214.634L3.56163 213.172L2.97226 211.698L2.43517 210.213L1.95081 208.717L1.51957 207.211L1.14179 205.696L0.817675 204.173L0.547358 202.642L0.330868 201.104L0.168129 199.561L0.0589553 198.013L0.00304965 196.462L0 194.907L0.0492764 193.351L0.150229 191.794L0.302088 190.238L0.50396 188.683L0.754831 187.13L1.05356 185.581L1.3989 184.037L1.78946 182.498L2.22374 180.966L2.70014 179.442L3.21693 177.926L3.77226 176.42L4.3642 174.924L4.99069 173.44L5.6496 171.969L6.33869 170.511L7.05565 169.067L7.79807 167.637L8.56349 166.224L9.34938 164.826L10.1531 163.445L10.9721 162.082L11.8037 160.736L12.6451 159.408L13.4936 158.099L14.3464 156.809L15.2007 155.538L16.0539 154.286L16.9031 153.053L17.7456 151.84L18.5786 150.645L19.3996 149.47L20.2058 148.314L20.9947 147.176L21.7638 146.056L22.5106 144.954L23.2327 143.869L23.928 142.8L24.5942 141.748L25.2293 140.712L25.8314 139.689L26.3985 138.681L26.9291 137.686L27.4215 136.703L27.8744 135.731L28.2864 134.769L28.6565 133.817L28.9838 132.873L29.2673 131.936L29.5065 131.005L29.701 130.079L29.8504 129.157L29.9546 128.237L30.0136 127.319L30.0277 126.402L29.9973 125.484L29.923 124.565L29.8054 123.642L29.6456 122.716L29.4446 121.785L29.2036 120.848L28.9241 119.904L28.6077 118.953L28.256 117.993L27.8709 117.024L27.4544 116.045L27.0087 115.055L26.5361 114.053L26.0391 113.04L25.5207 112.014L24.984 110.976L24.4324 109.924L23.8696 108.86L23.2993 107.783L22.7255 106.692L22.1523 105.59L21.5837 104.475L21.0242 103.348L20.4778 102.21L19.9489 101.061L19.4418 99.9036L18.9606 98.7372L18.5095 97.5634L18.0926 96.3832L17.7137 95.1981L17.3766 94.0093L17.085 92.8184L16.8421 91.6266L16.6512 90.4358L16.5153 89.2473L16.4371 88.063L16.4189 86.8844L16.4629 85.7132L16.5709 84.551L16.7445 83.3996L16.985 82.2605L17.2935 81.1354L17.6708 80.0259L18.1175 78.9336L18.6338 77.86L19.2198 76.8066L19.8753 75.7748L20.5999 74.766L21.3929 73.7815L22.2534 72.8225L23.1802 71.8901L24.1721 70.9853L25.2273 70.1092L26.3442 69.2624L27.5207 68.4457L28.7548 67.6598L30.0441 66.9051L31.3863 66.1819L32.7786 65.4907L34.2183 64.8314L35.7027 64.2042L37.2288 63.6088L38.7936 63.0451L40.394 62.5127L42.0268 62.0111L43.689 61.5398L45.3772 61.0979L47.0883 60.6849L48.8191 60.2996L50.5664 59.941L52.3271 59.6081L54.098 59.2997L55.8762 59.0143L57.6585 58.7507L59.4423 58.5074L61.2246 58.2827L63.0027 58.0753L64.7742 57.8833L66.5365 57.7051L68.2873 57.5391L70.0244 57.3834L71.7459 57.2362L73.4497 57.0958L75.1343 56.9604L76.798 56.8282L78.4394 56.6974L80.0573 56.5663L81.6507 56.4331L83.2186 56.2961L84.7604 56.1537L86.2754 56.0043L87.7633 55.8464L89.2239 55.6785L90.657 55.4991L92.0629 55.307L93.4417 55.1009L94.7938 54.8796L96.1198 54.6421L97.4203 54.3874L98.6962 54.1147L99.9483 53.8231L101.178 53.512L102.385 53.1809L103.573 52.8293L104.741 52.4568L105.892 52.0633L107.026 51.6486L108.146 51.2128L109.252 50.7559L110.347 50.2781L111.432 49.7799L112.509 49.2615L113.579 48.7235L114.644 48.1666L115.705 47.5914L116.765 46.9987L117.825 46.3891L118.886 45.7635L119.95 45.1223L121.017 44.4662L122.09 43.7959L123.168 43.1117L124.255 42.4144L125.349 41.7043L126.453 40.9819L127.567 40.2478L128.693 39.5023L129.831 38.746L130.982 37.9792L132.146 37.2023L133.326 36.4159L134.52 35.6202L135.731 34.8157L136.959 34.0029L138.205 33.1821L139.469 32.3537L140.751 31.5183L142.053 30.6762L143.376 29.828L144.719 28.9741L146.084 28.115L147.47 27.2512L148.879 26.3833L150.311 25.512L151.767 24.6379L153.246 23.7616L154.75 22.8841L156.279 22.006L157.833 21.1282L159.412 20.2517L161.017 19.3774L162.648 18.5063L164.305 17.6395L165.989 16.7781L167.699 15.9232L169.435 15.076L171.198 14.2378L172.987 13.4099L174.802 12.5934L176.643 11.7899L178.509 11.0005L180.4 10.2268L182.316 9.47019L184.256 8.73204L186.219 8.01383L188.205 7.31701L190.212 6.64305L192.24 5.99342L194.289 5.36956L196.355 4.77295L198.44 4.205L200.541 3.66714L202.657 3.16077L204.787 2.68726L206.929 2.24795L209.082 1.84415L211.244 1.47711L213.414 1.14807L215.589 0.8582L217.768 0.608612L219.949 0.400374L222.131 0.234491L224.311 0.111899L226.487 0.0334698L228.657 0L230.819 0.0122115L232.972 0.0707471L235.112 0.176167L237.239 0.328949L239.349 0.529479L241.441 0.778057L243.513 1.07489L245.562 1.42009L247.587 1.81369L249.585 2.2556L251.555 2.74565L253.494 3.28359L255.4 3.86905L257.273 4.50158L259.109 5.18064L260.908 5.90559L262.667 6.6757L264.386 7.49015L266.062 8.34804L267.694 9.24838L269.282 10.1901L270.823 11.172L272.317 12.1929L273.762 13.2515L275.159 14.3464L276.506 15.4761L277.803 16.6392L279.049 17.8341L280.244 19.0592L281.387 20.3128L282.48 21.5932L283.522 22.8987L284.512 24.2275L285.452 25.5778L286.343 26.9475L287.184 28.3348L287.978 29.7375L288.725 31.1535L289.428 32.5807L290.087 34.0169L290.704 35.46L291.283 36.9077L291.824 38.358L292.331 39.8087L292.807 41.2577L293.253 42.7031L293.672 44.1428L294.068 45.575L294.444 46.9978L294.803 48.4096L295.148 49.8088L295.482 51.1938L295.809 52.5633L296.132 53.916L296.453 55.2508L296.777 56.5668L297.107 57.863L297.445 59.1387L297.795 60.3935L298.159 61.6268L298.541 62.8385L298.943 64.0283L299.367 65.1963L299.817 66.3426L300.293 67.4674L300.798 68.5712L301.335 69.6543L301.904 70.7175L302.508 71.7615L303.147 72.787L303.822 73.795L304.535 74.7865L305.285 75.7627L306.074 76.7246L306.901 77.6736L307.765 78.6108L308.668 79.5378L309.607 80.4558L310.582 81.3663L311.592 82.2707L312.636 83.1705L313.711 84.0672L314.817 84.9621L315.95 85.8568L317.109 86.7527L318.291 87.6512L319.494 88.5536L320.715 89.4613L321.95 90.3755L323.196 91.2975L324.451 92.2282L325.71 93.1689L326.97 94.1205L328.228 95.0839L329.479 96.0598L330.72 97.0491L331.947 98.0522L333.156 99.0698L334.343 100.102L335.504 101.15L336.635 102.212L337.733 103.291L338.793 104.384L339.813 105.493L340.787 106.616L341.713 107.755L342.587 108.907L343.406 110.073L344.167 111.252L344.866 112.444L345.501 113.646L346.069 114.859L346.569 116.082L346.996 117.313L347.35 118.552L347.629 119.796L347.831 121.045L347.955 122.298L348 123.554L347.965 124.81L347.849 126.066L347.653 127.319Z" fill="#FCE858"/>
</svg>
