<svg width="64" height="86" viewBox="0 0 64 86" fill="none" xmlns="http://www.w3.org/2000/svg">
<path d="M35.9855 51.3893C44.9165 57.3903 56.0597 55.3914 63.507 45.3736L59.3818 39.8246C53.9538 47.1261 45.9246 48.7897 39.3065 44.824C48.7762 40.5725 55.6046 28.5588 55.6046 14.3917H49.7701C49.7701 24.7185 44.9664 33.5305 38.2031 37.0224C42.6643 25.0087 41.1783 10.0177 33.731 0L29.6058 5.54905C35.0338 12.8506 36.2705 23.6513 33.3224 32.5537C30.1618 19.8153 21.2308 10.6301 10.6988 10.6301V18.4784C18.3759 18.4784 24.9267 24.9401 27.5215 34.0379C18.5905 28.0369 7.44725 30.0357 0 40.0535L4.12517 45.6025C9.55317 38.301 17.5825 36.6375 24.2006 40.6031C14.7308 44.8546 7.90243 56.8683 7.90243 71.0354H13.7369C13.7369 60.7086 18.5406 51.8966 25.304 48.4048C20.8428 60.4185 22.3287 75.4094 29.776 85.4257L33.9012 79.8766C28.4732 72.5751 27.2365 61.7744 30.1846 52.872C33.3452 65.6104 42.2762 74.7956 52.8082 74.7956V66.9473C45.1311 66.9488 38.5802 60.487 35.9855 51.3893Z" fill="#FF9747"/>
</svg>
