<svg width="66" height="84" viewBox="0 0 66 84" fill="none" xmlns="http://www.w3.org/2000/svg">
<path d="M65.1405 49.8831C64.6533 48.1459 64.0608 46.4373 63.348 44.7774C57.4185 30.963 45.4468 24.7727 34.5165 28.7493C37.8482 17.9427 45.1521 9.91364 53.9804 7.96039C52.6188 7.65846 51.2231 7.49533 49.7977 7.49533C37.9386 7.49533 27.9678 18.3463 25.0626 33.0693C19.7714 23.7839 18.2534 11.2616 21.4107 0C20.5363 1.43525 19.732 2.98067 19.0193 4.64058C13.0898 18.455 15.0908 35.4962 23.1159 46.2413C14.4929 47.7624 5.67207 43.2692 0 33.9608C0.487211 35.698 1.07973 37.4066 1.79247 39.0665C7.72197 52.8809 19.6938 59.0712 30.6241 55.0946C27.2923 65.9011 19.9884 73.9302 11.1601 75.8835C12.5217 76.1854 13.9174 76.3485 15.3429 76.3485C27.2019 76.3485 37.1727 65.4976 40.0779 50.7745C45.3691 60.0586 46.8871 72.5823 43.7298 83.8439C44.6042 82.4086 45.4085 80.8632 46.1212 79.2033C52.0507 65.3889 50.0498 48.3476 42.0246 37.6026C50.6476 36.0815 59.4695 40.5747 65.1405 49.8831Z" fill="#D85A7B"/>
</svg>
